<svg width="80" height="32" viewBox="0 0 80 32" fill="none" xmlns="http://www.w3.org/2000/svg">
<g clip-path="url(#clip0)">
<path d="M79.5084 0H0V32H79.5084V0Z" fill="#ED1D24"/>
<path d="M67.2842 7.45728V2.55932H53.655L51.4136 18.9224L49.1956 2.5594H44.2806L44.8312 6.92561C44.2635 5.80708 42.2512 2.5594 37.8229 2.5594C37.7937 2.55749 32.9012 2.5594 32.9012 2.5594L32.8824 26.4099L29.3 2.5594L22.863 2.55566L19.157 27.268L19.1589 2.55924H12.9983L10.7774 16.4402L8.61417 2.5594H2.45163V29.4258H7.30451V16.4762L9.51198 29.4255H12.0919L14.2684 16.4762V29.4255H23.6239L24.1916 25.2914H27.9583L28.524 29.4255L37.7089 29.4311H37.7164V29.4255H37.7221H37.7279V20.7046L38.8538 20.5406L41.185 29.4311H41.1907H45.9302H45.9357L45.9338 29.4255H45.9423H45.948L42.8889 19.0053C44.4392 17.8587 46.1895 14.9467 45.7237 12.1609V12.1591C45.7293 12.1968 48.6111 29.4426 48.6111 29.4426L54.2614 29.4255L58.1222 5.0733V29.4255H67.2845V24.5936H62.9354V18.432H67.2845V13.5265H62.9354V7.45728H67.2842ZM24.7633 21.031L26.0957 9.54517L27.4791 21.031H24.7633ZM38.8696 15.7275C38.4961 15.9086 38.1067 15.9992 37.7276 15.9992V7.35734C37.7342 7.35734 37.7418 7.35559 37.7512 7.35559C38.1313 7.35368 40.9649 7.47056 40.9649 11.6311C40.9649 13.8075 40.0012 15.1787 38.8696 15.7275ZM77.0623 24.5898V29.4217H68.1244V2.55566H72.9367V24.5898H77.0623Z" fill="white"/>
</g>
<defs>
<clipPath id="clip0">
<rect width="79.5084" height="32" fill="white"/>
</clipPath>
</defs>
</svg>
